<svg width="30" height="30" viewBox="0 0 30 30" fill="none" xmlns="http://www.w3.org/2000/svg">
<path d="M21.2878 8.71219C21.1648 8.58907 21.0098 8.50263 20.8405 8.46256C20.6711 8.42248 20.4939 8.43037 20.3287 8.48531L11.8912 11.2978C11.753 11.3438 11.6275 11.4215 11.5245 11.5245C11.4214 11.6275 11.3438 11.7531 11.2978 11.8912L8.48528 20.3287C8.4302 20.4939 8.4222 20.6712 8.4622 20.8407C8.50219 21.0101 8.58859 21.1651 8.71172 21.2883C8.83484 21.4114 8.98983 21.4978 9.1593 21.5377C9.32877 21.5778 9.50604 21.5698 9.67123 21.5147L18.1087 18.7022C18.2469 18.6561 18.3724 18.5785 18.4755 18.4755C18.5785 18.3725 18.656 18.2469 18.7022 18.1087L21.5147 9.67124C21.5696 9.50606 21.5775 9.32889 21.5374 9.1595C21.4973 8.99011 21.4109 8.83523 21.2878 8.71219ZM10.8572 19.1437L12.929 12.93L17.0718 17.0728L10.8572 19.1437Z" fill="black"/>
<path d="M15 28.125C12.4042 28.125 9.86653 27.3552 7.70814 25.9131C5.54975 24.4708 3.86749 22.421 2.87408 20.0228C1.88069 17.6244 1.62077 14.9855 2.1272 12.4394C2.63363 9.89345 3.88367 7.5548 5.71923 5.71923C7.5548 3.88367 9.89344 2.63363 12.4394 2.1272C14.9855 1.62077 17.6244 1.88069 20.0227 2.87409C22.421 3.86749 24.4708 5.54975 25.9131 7.70814C27.3552 9.86654 28.125 12.4042 28.125 15C28.1211 18.4797 26.7369 21.8158 24.2764 24.2764C21.8158 26.7369 18.4797 28.1211 15 28.125ZM15 3.75001C12.7749 3.75001 10.5999 4.40981 8.74984 5.64597C6.89978 6.88214 5.45784 8.63915 4.60636 10.6948C3.75487 12.7505 3.53209 15.0125 3.96617 17.1948C4.40026 19.3771 5.47171 21.3816 7.04505 22.955C8.61839 24.5283 10.623 25.5998 12.8052 26.0338C14.9875 26.4679 17.2495 26.2451 19.3052 25.3937C21.3608 24.5422 23.1179 23.1002 24.354 21.2501C25.5902 19.4002 26.25 17.2251 26.25 15C26.2465 12.0174 25.0601 9.15792 22.9511 7.04889C20.8421 4.93986 17.9827 3.75348 15 3.75001Z" fill="black"/>
</svg>
