<svg width="30" height="30" viewBox="0 0 30 30" fill="none" xmlns="http://www.w3.org/2000/svg">
<path d="M15.2842 2.40233C10.8164 2.39061 6.88473 4.70214 4.63766 8.19433C4.53805 8.3496 4.64938 8.55468 4.83395 8.55468H6.89352C7.03414 8.55468 7.16598 8.49315 7.25387 8.38476C7.45895 8.13573 7.67867 7.8955 7.91012 7.66698C8.8652 6.71483 9.97555 5.96483 11.2119 5.44335C12.4892 4.90429 13.8486 4.6289 15.2519 4.6289C16.6553 4.6289 18.0146 4.90136 19.292 5.44335C20.5283 5.96483 21.6387 6.71483 22.5937 7.66698C23.5488 8.61913 24.2959 9.72948 24.8203 10.9629C25.3623 12.2402 25.6348 13.5967 25.6348 15C25.6348 16.4033 25.3594 17.7598 24.8203 19.0371C24.2988 20.2705 23.5488 21.3809 22.5937 22.333C21.6387 23.2852 20.5283 24.0352 19.292 24.5566C18.0136 25.0966 16.6396 25.3736 15.2519 25.3711C13.8486 25.3711 12.4892 25.0957 11.2119 24.5566C9.97798 24.0357 8.85672 23.2806 7.91012 22.333C7.67867 22.1016 7.46188 21.8613 7.25387 21.6152C7.16598 21.5068 7.03121 21.4453 6.89352 21.4453H4.83395C4.64938 21.4453 4.53512 21.6504 4.63766 21.8057C6.8818 25.2891 10.7959 27.5977 15.2519 27.5977C22.1719 27.5977 27.791 22.0283 27.8613 15.1289C27.9316 8.11815 22.3037 2.41991 15.2842 2.40233ZM11.5728 18.2813V16.0547H2.3736C2.24469 16.0547 2.13922 15.9492 2.13922 15.8203V14.1797C2.13922 14.0508 2.24469 13.9453 2.3736 13.9453H11.5728V11.7188C11.5728 11.5225 11.8014 11.4111 11.9537 11.5342L16.1109 14.8154C16.1389 14.8374 16.1616 14.8654 16.1772 14.8973C16.1928 14.9293 16.2009 14.9644 16.2009 15C16.2009 15.0356 16.1928 15.0707 16.1772 15.1027C16.1616 15.1346 16.1389 15.1626 16.1109 15.1846L11.9537 18.4658C11.8014 18.5859 11.5728 18.4775 11.5728 18.2813Z" fill="black"/>
</svg>
