<svg width="30" height="30" viewBox="0 0 30 30" fill="none" xmlns="http://www.w3.org/2000/svg">
<path d="M25.6016 21.7017C25.0372 20.4386 24.2181 19.2914 23.19 18.3238C22.1651 17.3535 20.9509 16.5798 19.6146 16.0456C19.6026 16.0399 19.5907 16.0371 19.5787 16.0314C21.4427 14.7594 22.6545 12.6875 22.6545 10.3499C22.6545 6.47741 19.3334 3.33984 15.2343 3.33984C11.1353 3.33984 7.81415 6.47741 7.81415 10.3499C7.81415 12.6875 9.02591 14.7594 10.8899 16.0343C10.878 16.0399 10.866 16.0427 10.854 16.0484C9.51361 16.5826 8.31082 17.3486 7.27858 18.3267C6.25146 19.295 5.43253 20.442 4.86703 21.7045C4.31148 22.9404 4.01186 24.2655 3.98439 25.6081C3.98359 25.6382 3.98919 25.6682 4.00086 25.6963C4.01253 25.7244 4.03004 25.75 4.05234 25.7716C4.07465 25.7932 4.10131 25.8104 4.13075 25.8221C4.16018 25.8338 4.19181 25.8399 4.22375 25.8398H6.01895C6.1506 25.8398 6.25532 25.7409 6.25831 25.6194C6.31815 23.4372 7.24567 21.3936 8.88529 19.8446C10.5818 18.2419 12.8347 17.3599 15.2343 17.3599C17.6339 17.3599 19.8869 18.2419 21.5833 19.8446C23.223 21.3936 24.1505 23.4372 24.2103 25.6194C24.2133 25.7437 24.318 25.8398 24.4497 25.8398H26.2449C26.2768 25.8399 26.3084 25.8338 26.3379 25.8221C26.3673 25.8104 26.394 25.7932 26.4163 25.7716C26.4386 25.75 26.4561 25.7244 26.4678 25.6963C26.4794 25.6682 26.485 25.6382 26.4842 25.6081C26.4543 24.2569 26.1581 22.9425 25.6016 21.7017ZM15.2343 15.2117C13.861 15.2117 12.5684 14.7057 11.596 13.7871C10.6236 12.8684 10.0881 11.6473 10.0881 10.3499C10.0881 9.05247 10.6236 7.83136 11.596 6.91271C12.5684 5.99405 13.861 5.48808 15.2343 5.48808C16.6076 5.48808 17.9002 5.99405 18.8726 6.91271C19.845 7.83136 20.3806 9.05247 20.3806 10.3499C20.3806 11.6473 19.845 12.8684 18.8726 13.7871C17.9002 14.7057 16.6076 15.2117 15.2343 15.2117Z" fill="black"/>
</svg>
